<svg xmlns="http://www.w3.org/2000/svg" width="338" height="113"><path fill="currentColor" d="M35.708 76.198c5.71-12.596 12.509-24.792 19.929-36.449 5.936-9.325 12.531-18.35 20.423-26.124 3.592-3.538 21.999-19.512 24.201-7.754 1.437 7.671-6.393 13.61-11.281 18.056-7.991 7.267-18.895 16.8-30.267 17.18-5.584.186-8.278-4.262-2.486-6.9 4.748-2.163 11.68-1.203 15.831 1.882 6.136 4.56 7.333 13.643 6.594 20.671-2.113 20.089-21.804 31.434-40.489 31.942-10.005.273-20.127-3.216-27.878-9.504C5.702 75.481-.791 67.361 4.432 61.723c5.086-5.489 15.838-6.06 22.707-6.599 9.563-.75 19.262-.227 28.748 1.103 17.415 2.44 34.782 10.331 52.523 9.654 1.365-.052 1.953-1.839.302-1.775-10.129.387-19.927-2.637-29.662-5.031-11.979-2.944-24.007-5.277-36.344-5.89-10.284-.511-21.082-.132-31.015 2.804C6.645 57.48-.016 60.537 0 66.686c.02 7.49 7.442 13.678 13.175 17.24 8.654 5.379 19.658 7.5 29.723 6.229 19.138-2.418 36.83-14.956 38.378-35.34 1.123-14.777-9.333-27.002-24.844-22.534-3.846 1.108-9.143 5.838-4.23 9.221 6.149 4.232 15.94-.632 21.391-3.685 8.829-4.944 16.654-12.001 23.745-19.155 3.711-3.745 6.554-9.052 5.107-14.463-1.521-5.687-8.281-4.471-12.35-2.841-9.389 3.761-17.198 12.063-23.556 19.659-13.585 16.233-24.4 35.525-33.125 54.773-.58 1.277 1.844 1.398 2.294.408m51.309-2.667c12.079 5.556 26.712-4.141 35.146-11.798 1.11-1.008-.924-2.322-1.873-1.479-2.104 1.87-4.605 4.714-4.768 7.659-.183 3.32 1.886 5.684 5.207 5.615 6.289-.129 13.214-6.278 17.768-10.129l-2.154-1.022c-.534 2.426.185 4.718 2.258 6.117 3.134 2.115 6.958.061 9.64-1.71 3.536-2.336 7.024-5.871 9.07-9.613.834-1.526.361-3.598-1.779-3.198-4.25.793-12.445 8.79-7.156 12.849 3.924 3.01 9.011 3.011 13.682 2.202 2.692-.466 8.079-1.834 8.722-5.08.259-1.31-2.177-1.871-2.436-.566-.897 4.54-12.08 4.276-15.033 3.658-7.721-1.615-2.289-8.07 1.401-10.397 1.93-1.217-.065.285-.846 1.396-1.366 1.942-3.116 3.62-4.87 5.205-1.845 1.668-3.966 3.207-6.365 3.942-3.614 1.107-4.313-2.146-3.852-4.237.247-1.12-1.418-1.645-2.154-1.022-3.198 2.704-6.631 5.173-10.258 7.264-2.247 1.294-7.669 4.542-8.426-.285-.403-2.57 2.472-5.61 4.224-7.167l-1.873-1.479c-7.48 6.792-21.226 16.578-32.187 11.536-1.333-.614-2.573 1.055-1.088 1.739m51.326-39.376c-.083.234.191-.445.253-.581a8.7 8.7 0 0 1 .92-1.545c.366-.491.844-.926 1.454-1.059.795-.173 1.611 1.488 1.9 1.975.306.517.862.936 1.481.965.503.023.845-.397.565-.868-1.213-2.047-3.529-4.934-6.23-3.546-1.312.674-2.106 2.341-2.576 3.669-.306.867 1.853 2.066 2.233.99m17.475 75.89c1.252-.63 1.996-5.468 2.843-7.319 1.309-2.863 2.706-5.688 4.109-8.505 4.346-8.728 8.953-17.327 13.722-25.83 11.527-20.549 24.122-40.72 40.669-57.639 2.081-2.127 4.977-5.538 8.065-6.268 1.548-.365 1.974 3.014 2.16 3.917 1.313 6.382 2.145 12.22 1.498 18.798-1.164 11.85-5.729 23.31-13.096 32.65-4.367 5.536-9.984 10.258-15.737 14.293-4.26 2.988-9.5 5.802-14.863 5.395-6.016-.456-7.979-7.367-8.643-12.274-.882-6.532.468-14.554 5.549-19.152 6.333-5.73 14.442.035 19.806 4.081 5.62 4.237 10.942 9.061 17.805 11.156 1.275.39 2.563-1.577 1.045-2.041-10.366-3.165-17.032-12.753-26.967-16.783-7.513-3.047-14.51 1.544-17.68 8.319-5.385 11.51-1.392 33.491 15.313 28.001 10.699-3.516 20.326-12.364 27.173-21.044 6.586-8.349 10.479-18.673 12.234-29.083 1.167-6.916.918-13.512-.525-20.321-.537-2.537-.634-7.091-3.698-7.98-2.553-.741-5.452 1.873-7.179 3.316-5.9 4.936-11.011 11.071-15.849 17.015-10.136 12.452-18.561 26.354-26.567 40.232-6.617 11.468-12.863 23.172-18.643 35.084-.871 1.796-7.761 16.914-1.728 13.88 1.397-.703.599-2.609-.816-1.898m72.093-36.992c5.001-4.348 10.52-8.993 16.679-11.559 5.313-2.212 1.619 5.671.518 7.956-1.436 2.976-3.271 5.825-5.231 8.483-.247.335 1.704 1.811 2.035 1.453 3.417-3.7 6.94-7.314 10.604-10.772 1.862-1.758 3.936-3.98 6.33-5.013 1.15-.495-.212 1.09-1.032-1.148.167.456-.191 1.184-.341 1.605-.775 2.184-2.092 4.225-3.262 6.208-.229.388 1.691 1.783 2.035 1.453 2.523-2.43 5.166-4.798 8.072-6.762a8.7 8.7 0 0 1 1.643-.866q1.288-.147-.704-.815c.09.406.141.825.209 1.236.144.866.375 1.684.794 2.457 4.013 7.395 14.38-4.352 16.986-6.917l-2.035-1.453c-2.325 2.346-10.884 10.575-3.824 12.231 3.116.731 8.105-3.578 10.293-5.158 4.806-3.471 9.999-7.826 12.566-13.286.201-.43-1.735-1.794-2.035-1.453-2.927 3.329-8.285 8.788-8.336 13.49-.019 1.673 1.2 3.174 2.697 3.896 2.919 1.406 4.645-.63 6.955-2.49 9.751-7.852 18.824-16.863 27.696-25.674 3.466-3.441 7.536-7.016 10.057-11.256 1.397-2.35-2.504-3.417-4.163-3.112-8.069 1.483-13.236 10.885-14.934 17.986-1.323 5.538-3.673 10.86-6.265 15.909-1.037 2.02-3.805 8.584-6.543 8.906l1.599.92c.266.251 3.999-3.377 4.768-3.942.944-.695 3.672-1.259 2.853-2.41.354.497.636.888 1.135 1.246 4.064 2.925 11.246.446 13.183-4.017.228-.525-1.916-1.728-2.035-1.453-.97 2.235-8.549 7.757-10.596 4.883-.899-1.264-2.371-1.708-3.797-1.269-2.08.64-10.266 5.609-5.579 7.496 4.267 1.718 11.623-19.266 12.445-21.775 1.773-5.416 2.694-10.122 6.45-14.624 2.429-2.911 6.357-6.194 10.298-6.47-1.006.071-.143-.923-1.028.568-.488.821-1.121 1.563-1.726 2.299-2.118 2.581-4.49 4.963-6.834 7.336-5.836 5.91-11.92 11.581-18.037 17.198-3.679 3.378-7.308 6.962-11.263 10.022-1.87 1.447-6.334 4.646-4.982-.2.492-1.762 1.604-3.4 2.577-4.922 1.599-2.5 3.481-4.863 5.44-7.091l-2.035-1.453c-3.406 7.246-11.289 13.048-18.104 16.871-1.248.699-2.575 1.295-3.995 1.511.737-.112 1.85-2.99 2.324-3.677 1.389-2.009 3.092-3.854 4.81-5.586.235-.237-1.646-1.836-2.035-1.453-3.218 3.169-7.973 8.861-12.907 9.23-.789.059-.739-3.376-1.381-4.117-3.51-4.057-10.313 4.244-12.712 6.554l2.035 1.453c.851-1.443 4.928-6.705 3.276-8.572-1.607-1.818-3.008-1.003-4.679.232-5.534 4.09-10.312 9.514-14.967 14.554l2.035 1.453c3.026-4.106 12.25-16.382 4.448-19.828-3.106-1.372-8.301 2.806-10.584 4.349-3.454 2.335-6.753 4.957-9.899 7.692-.212.189 1.593 1.842 2.035 1.457m65.092-19.462c.175-3.188 6.01-4.028 8.358-4.704 2.425-.698 5.381-1.864 4.61-4.897-.211-.831-1.889-2.235-1.488-.66.726 2.858-6.066 3.808-7.833 4.308-2.207.625-5.057 2.155-5.198 4.758-.042.759 1.475 2.592 1.551 1.195M280.98 42.542c.184-.083.179-.074.354-.112a2.2 2.2 0 0 1 .516-.04c.146.004.125.056.038-.048.242.291.865.802 1.196.321.319-.462-.02-1.212-.329-1.583-.782-.938-1.901-1.214-3.015-.709-.871.395.321 2.587 1.24 2.171"/></svg>